<svg width="165" height="102" viewBox="0 0 165 102" fill="none" xmlns="http://www.w3.org/2000/svg">
<path d="M157.461 56.8659H147.947C148.851 55.7877 149.522 54.5286 149.915 53.1705H160.153C161.096 53.1695 162.001 52.7891 162.668 52.1126C163.335 51.4361 163.71 50.5189 163.711 49.5622V32.7289C163.711 30.7413 162.117 29.1137 160.157 29.0993L158.627 29.0886C157.235 29.078 155.479 28.0325 154.792 26.8056L147.381 13.5724C146.468 11.9423 144.307 10.6658 142.458 10.6658H109.761C107.926 10.6658 105.711 11.8903 104.715 13.4541L96.0131 27.1311C95.2268 28.3675 93.3683 29.6927 91.9555 30.0245L84.3295 31.8174C82.4877 32.25 80.9891 34.1624 80.9891 36.0805V49.5628C80.99 50.5195 81.3652 51.4367 82.0322 52.1132C82.6992 52.7897 83.6035 53.1702 84.5468 53.1712H90.234C90.6269 54.5294 91.2974 55.7884 92.2017 56.8665H81.194C78.6004 56.8665 76.4907 54.7268 76.4907 52.0969V7.65222C76.4907 3.58817 73.2304 0.282227 69.2233 0.282227H54.9726C51.2242 0.282227 46.6968 2.78375 44.6648 5.97827L29.1229 30.4051C27.4872 32.9761 23.7252 36.0767 20.9081 37.1741L6.65617 42.7306C3.06325 44.1316 0.248047 48.287 0.248047 52.1921V79.7327C0.248047 83.7967 3.50828 87.1033 7.51536 87.1033H15.0765C17.5386 95.6759 25.3497 101.96 34.5866 101.96C43.8223 101.96 51.634 95.6759 54.0956 87.1033H97.5599C100.022 95.6759 107.834 101.96 117.07 101.96C126.306 101.96 134.117 95.6759 136.579 87.1033H157.46C161.467 87.1033 164.727 83.7974 164.727 79.7327V64.2365C164.729 60.1724 161.468 56.8659 157.461 56.8659ZM34.5872 91.5862C29.0118 91.5862 24.4924 87.0019 24.4924 81.3478C24.4924 75.6937 29.0118 71.1094 34.5872 71.1094C40.1615 71.1094 44.6827 75.693 44.6827 81.3478C44.6821 87.0019 40.1615 91.5862 34.5872 91.5862ZM64.1997 35.4814C64.2004 36.1201 64.0753 36.7526 63.8319 37.3416C63.5884 37.9307 63.2314 38.4645 62.7818 38.9118C62.3322 39.359 61.7991 39.7108 61.2138 39.9463C60.6284 40.1819 60.0025 40.2965 59.3729 40.2835L41.2596 39.9273C38.6048 39.8754 37.5648 37.9523 38.9486 35.6536L51.8272 14.2597C53.2111 11.961 56.5157 10.0805 59.1711 10.0805H59.3711C62.027 10.0805 64.1991 12.2841 64.1991 14.9771L64.1997 35.4814ZM135.427 50.3535C135.427 49.6953 135.554 49.0436 135.803 48.4355C136.051 47.8274 136.415 47.2748 136.874 46.8094C137.333 46.344 137.877 45.9748 138.477 45.723C139.077 45.4712 139.719 45.3416 140.368 45.3417C141.346 45.3415 142.301 45.6354 143.114 46.1862C143.927 46.7369 144.561 47.5197 144.935 48.4356C145.309 49.3516 145.407 50.3595 145.216 51.3318C145.025 52.3042 144.555 53.1974 143.863 53.8984C143.172 54.5995 142.292 55.0769 141.333 55.2703C140.374 55.4637 139.38 55.3643 138.477 54.9849C137.574 54.6054 136.802 53.9629 136.259 53.1385C135.716 52.3141 135.427 51.3449 135.427 50.3535ZM129.437 15.4623H139.836C141.136 15.4623 142.704 16.412 143.32 17.5726L148.818 27.918C149.434 29.0786 148.874 30.0283 147.574 30.0283H129.436L129.437 15.4623ZM101.916 27.9825L108.221 17.5087C108.899 16.3832 110.518 15.4623 111.817 15.4623H123.75V30.0289H103.048C101.748 30.0283 101.239 29.108 101.916 27.9825ZM99.7801 45.3417C100.437 45.3288 101.09 45.4489 101.701 45.695C102.312 45.9411 102.868 46.3082 103.337 46.7749C103.806 47.2416 104.179 47.7985 104.433 48.413C104.688 49.0275 104.819 49.6873 104.819 50.3538C104.819 51.0203 104.688 51.6801 104.433 52.2946C104.179 52.9091 103.806 53.466 103.337 53.9327C102.868 54.3994 102.312 54.7665 101.701 55.0126C101.09 55.2587 100.437 55.3788 99.7801 55.3659C98.486 55.3405 97.2534 54.8013 96.347 53.8641C95.4407 52.9269 94.933 51.6665 94.933 50.3538C94.933 49.0411 95.4407 47.7807 96.347 46.8435C97.2534 45.9063 98.486 45.3671 99.7801 45.3417ZM117.071 91.5862C111.496 91.5862 106.976 87.0019 106.976 81.3478C106.976 75.6937 111.496 71.1094 117.071 71.1094C122.646 71.1094 127.166 75.693 127.166 81.3478C127.165 87.0019 122.646 91.5862 117.071 91.5862ZM107.36 56.8659C108.265 55.7877 108.935 54.5286 109.328 53.1705H130.82C131.213 54.5287 131.884 55.7878 132.788 56.8659H107.36Z" fill="#19746B"/>
</svg>
