<svg width="24" height="24" viewBox="0 0 24 24" fill="none" xmlns="http://www.w3.org/2000/svg">
<g clip-path="url(#clip0_2379_4179)">
<path d="M23.5863 19.8618H0.413934C0.185419 19.8618 0.00012207 19.6765 0.00012207 19.448V4.55151C0.00012207 4.32299 0.185419 4.1377 0.413934 4.1377H23.5863C23.8148 4.1377 24.0001 4.32299 24.0001 4.55151V19.448C24.0001 19.6766 23.8148 19.8618 23.5863 19.8618Z" fill="#FF4B55"/>
<path d="M3.98457 6.59731L4.37907 7.78015L5.62594 7.78981C5.78737 7.79103 5.85431 7.99709 5.72442 8.09295L4.72139 8.83362L5.09747 10.0225C5.14613 10.1764 4.97091 10.3037 4.83956 10.2098L3.82519 9.48471L2.81082 10.2098C2.67947 10.3037 2.50426 10.1763 2.55291 10.0224L2.92899 8.83357L1.92596 8.09295C1.79607 7.99704 1.86301 7.79103 2.02444 7.78981L3.27132 7.78015L3.66582 6.59731C3.71691 6.44413 3.93352 6.44413 3.98457 6.59731Z" fill="#FFE15A"/>
<path d="M8.51223 6.88877L8.79512 7.27455L9.25163 7.13177C9.31074 7.1133 9.35935 7.18071 9.32316 7.23091L9.0437 7.61908L9.32054 8.00913C9.3564 8.05961 9.30732 8.12669 9.24835 8.1078L8.79277 7.96197L8.50735 8.34583C8.47042 8.39552 8.39143 8.36955 8.3912 8.30767L8.38909 7.82931L7.93581 7.67645C7.87717 7.65663 7.8774 7.57356 7.93623 7.55416L8.39045 7.40435L8.39579 6.92603C8.39645 6.86421 8.47562 6.83885 8.51223 6.88877Z" fill="#FFE15A"/>
<path d="M6.78998 5.73895L7.26552 5.79061L7.4684 5.35744C7.49469 5.30138 7.57719 5.31099 7.58985 5.37159L7.68763 5.83978L8.16229 5.89884C8.22374 5.90648 8.2401 5.98795 8.18633 6.01875L7.77126 6.25641L7.86177 6.72609C7.87349 6.78694 7.80107 6.82762 7.75518 6.78605L7.40085 6.46472L6.98216 6.6959C6.92798 6.72586 6.86681 6.66951 6.89221 6.61303L7.08829 6.17672L6.73898 5.84991C6.69379 5.80781 6.72843 5.7323 6.78998 5.73895Z" fill="#FFE15A"/>
<path d="M7.54175 10.3741L7.25886 10.7599L6.80234 10.6171C6.74324 10.5987 6.69463 10.6661 6.73081 10.7163L7.01028 11.1044L6.73344 11.4945C6.69758 11.545 6.74666 11.612 6.80563 11.5932L7.2612 11.4473L7.54662 11.8312C7.58356 11.8809 7.66255 11.8549 7.66278 11.793L7.66489 11.3147L8.11817 11.1618C8.17686 11.142 8.17658 11.0589 8.11775 11.0395L7.66353 10.8897L7.65819 10.4114C7.65744 10.3496 7.57836 10.3242 7.54175 10.3741Z" fill="#FFE15A"/>
<path d="M9.26398 9.29364L8.78844 9.3453L8.58556 8.91213C8.55926 8.85606 8.47676 8.86567 8.46411 8.92628L8.36628 9.39447L7.89163 9.45353C7.83017 9.46117 7.81381 9.54264 7.86758 9.57344L8.28266 9.81109L8.19214 10.2808C8.18042 10.3416 8.25284 10.3823 8.29873 10.3407L8.65306 10.0194L9.07175 10.2506C9.12594 10.2805 9.18711 10.2242 9.1617 10.1677L8.96562 9.73141L9.31494 9.40459C9.36026 9.3625 9.32562 9.28698 9.26398 9.29364Z" fill="#FFE15A"/>
</g>
<defs>
<clipPath id="clip0_2379_4179">
<rect width="24" height="24" fill="white"/>
</clipPath>
</defs>
</svg>
