<svg width="33" height="48" viewBox="0 0 33 48" fill="none" xmlns="http://www.w3.org/2000/svg">
<path d="M19.1365 13.6202C18.8679 15.4711 17.8627 17.1497 16.4716 18.3696C15.0806 19.5887 13.3013 20.3351 11.4689 20.3499H11.4556H11.4409C7.77606 20.3351 5.23004 17.3228 5.78205 13.6202C6.05067 11.7693 7.04104 10.0908 8.43213 8.87094C9.82395 7.6518 11.6032 6.90612 13.4341 6.89132H13.4489H13.4637C13.6068 6.89132 13.7493 6.89132 13.8932 6.90612L13.3788 10.4348C13.2349 10.4067 13.091 10.3926 12.9338 10.3926C11.1737 10.4067 9.53097 11.8418 9.26014 13.6202C9.00332 15.3853 10.2239 16.8345 11.9847 16.8345C13.2046 16.8345 14.3559 16.131 15.0407 15.1153H12.6888L13.1168 12.2206H19.1904L19.2066 12.6874C19.2154 12.9885 19.183 13.3051 19.1365 13.6202ZM26.6727 19.858L29.629 0.000386422H4.42565L0 29.7856H6.32004L5.41601 35.9294H11.77L4.77693 40.2756L3.6397 48.0039H28.8431L32.992 19.858H26.6727Z" fill="white"/>
</svg>
