<svg width="165" height="146" viewBox="0 0 165 146" fill="none" xmlns="http://www.w3.org/2000/svg">
<path d="M164.112 75.6638L150.404 43.7155C149.314 41.1735 146.829 39.4797 144.078 39.3996L143.978 39.3908L118.362 39.3955L118.217 39.3942C115.375 39.3942 112.812 41.09 111.686 43.7155L109.079 49.793C106.383 46.702 102.198 44.5325 98.3619 44.5325H33.7407C28.59 44.5325 22.8078 48.4399 20.8512 53.2423L13.9553 70.1726L7.39005 68.3492C6.82016 68.1882 6.23134 68.1054 5.63949 68.1029C2.49724 68.1029 0.216797 70.5228 0.216797 73.8567V77.8068C0.216797 81.6979 3.35838 84.8642 7.21903 84.8642H7.9711L6.85613 87.601C5.03891 92.0628 3.56037 99.6169 3.56037 104.441V138.117C3.56037 142.008 6.70195 145.174 10.5626 145.174H19.7079C23.5693 145.174 26.7102 142.008 26.7102 138.117V129.707H105.391V138.117C105.391 142.008 108.532 145.174 112.393 145.174H121.538C124.604 145.174 127.21 143.175 128.156 140.405C128.834 139.216 129.191 137.869 129.191 136.498V95.4911H132.513V136.498C132.513 140.85 136.027 144.391 140.345 144.391C144.664 144.391 148.177 140.85 148.177 136.498V74.6385L151.057 81.3525C151.427 82.2168 151.963 82.999 152.633 83.6545C153.304 84.3101 154.096 84.826 154.964 85.1728C155.833 85.5196 156.76 85.6905 157.694 85.6758C158.628 85.661 159.55 85.4609 160.407 85.0868C164.007 83.5193 165.668 79.2916 164.112 75.6638ZM18.9767 81.0315L29.4215 55.3894C30.5917 52.5176 34.0699 50.1669 37.1509 50.1669H94.9517C98.0327 50.1669 101.511 52.5176 102.681 55.3894L104.628 60.1674L97.9788 75.6638C97.6055 76.527 97.4058 77.4563 97.3914 78.3979C97.3769 79.3394 97.548 80.2745 97.8946 81.1489C98.2362 82.0253 98.7469 82.8246 99.3971 83.5007C100.047 84.1768 100.824 84.7161 101.683 85.0875C102.54 85.4616 103.462 85.6617 104.396 85.6764C105.329 85.6912 106.257 85.5203 107.125 85.1735C107.994 84.8267 108.786 84.3107 109.456 83.6552C110.127 82.9997 110.662 82.2175 111.033 81.3532L112.174 78.6938L113.126 81.0315C114.296 83.904 112.733 86.2547 109.651 86.2547H22.4509C19.3699 86.2547 17.8066 83.9047 18.9767 81.0315ZM42.2922 113.464C42.29 114.212 41.9943 114.929 41.4694 115.458C40.9446 115.987 40.2335 116.285 39.4913 116.287H19.65C18.9078 116.285 18.1967 115.987 17.6718 115.458C17.147 114.929 16.8513 114.212 16.8491 113.464V103.868C16.8513 103.12 17.147 102.403 17.6718 101.874C18.1967 101.345 18.9078 101.047 19.65 101.045H39.4913C40.2335 101.047 40.9446 101.345 41.4694 101.874C41.9943 102.403 42.29 103.12 42.2922 103.868V113.464ZM112.263 116.287H92.4221C91.6799 116.285 90.9688 115.987 90.4439 115.458C89.9191 114.929 89.6234 114.212 89.6212 113.464V103.868C89.6234 103.12 89.9191 102.403 90.4439 101.874C90.9688 101.345 91.6799 101.047 92.4221 101.045H112.263C112.719 101.045 113.145 101.167 113.527 101.365V115.968C113.145 116.165 112.719 116.287 112.263 116.287ZM130.153 36.7633C140.034 36.7633 148.073 28.6588 148.073 18.697C148.073 8.73588 140.034 0.63208 130.153 0.63208C120.269 0.63208 112.228 8.73588 112.228 18.697C112.228 28.6581 120.269 36.7633 130.153 36.7633Z" fill="#19746B"/>
</svg>
