<svg width="24" height="24" viewBox="0 0 24 24" fill="none" xmlns="http://www.w3.org/2000/svg">
<g clip-path="url(#clip0_2379_4096)">
<path d="M23.5864 19.8618H0.414056C0.185541 19.8618 0.000244141 19.6765 0.000244141 19.448V4.55151C0.000244141 4.32299 0.185541 4.1377 0.414056 4.1377H23.5864C23.8149 4.1377 24.0002 4.32299 24.0002 4.55151V19.448C24.0002 19.6766 23.8149 19.8618 23.5864 19.8618Z" fill="#FF4B55"/>
<path d="M16.377 13.2337C16.377 13.2337 15.5527 13.0963 14.942 12.5899C14.7619 12.4405 14.5005 12.3264 14.2458 12.242C14.4505 12.2329 14.6677 12.2386 14.8728 12.2801C15.7228 12.452 16.5469 12.0394 16.5469 12.0394C16.5469 12.0394 15.7154 12.1233 14.9932 11.795C14.7979 11.7063 14.5446 11.6645 14.2973 11.6468C14.4752 11.5957 14.6639 11.5557 14.8502 11.5453C15.716 11.4973 16.4095 10.8904 16.4095 10.8904C16.4095 10.8904 15.626 11.1812 14.8444 11.0456C14.6168 11.006 14.3374 11.0356 14.0774 11.0879C14.2484 10.9805 14.4368 10.88 14.6322 10.8154C15.4554 10.543 15.9663 9.776 15.9663 9.776C15.9663 9.776 15.286 10.2613 14.4961 10.3345C14.2615 10.3562 13.9944 10.4615 13.7533 10.5828C13.8924 10.4303 14.0511 10.2793 14.2269 10.1627C14.9494 9.68324 15.2404 8.80879 15.2404 8.80879C15.2404 8.80879 14.7118 9.45608 13.969 9.73461C13.7665 9.81055 13.5566 9.96261 13.3682 10.1265C13.4583 9.96271 13.5641 9.79888 13.69 9.65816C14.2679 9.01171 14.3285 8.09212 14.3285 8.09212C14.3285 8.09212 13.9805 8.85196 13.3323 9.30913C13.1433 9.44244 12.9666 9.66125 12.8197 9.88241C12.8646 9.68525 12.9266 9.48078 13.0191 9.29652C13.4081 8.52154 13.2265 7.61802 13.2265 7.61802C13.2265 7.61802 13.0891 8.44237 12.5827 9.053C12.4333 9.23314 12.3191 9.49457 12.2348 9.74928C12.2257 9.54458 12.2314 9.32746 12.2729 9.12229C12.4447 8.27235 12.0322 7.44824 12.0322 7.44824C12.0322 7.44824 12.1161 8.27976 11.7878 9.00191C11.699 9.19724 11.6572 9.45055 11.6396 9.69782C11.5884 9.51997 11.5484 9.33125 11.5381 9.14493C11.4901 8.2791 10.8831 7.58563 10.8831 7.58563C10.8831 7.58563 11.1739 8.3691 11.0383 9.15069C10.9988 9.37832 11.0283 9.65774 11.0806 9.9178C10.9732 9.74675 10.8728 9.55841 10.8081 9.36294C10.5357 8.53972 9.76873 8.02879 9.76873 8.02879C9.76873 8.02879 10.254 8.70918 10.3272 9.49907C10.3489 9.73363 10.4542 10.0009 10.5755 10.2419C10.4231 10.1028 10.2721 9.94405 10.1554 9.76822C9.67596 9.04574 8.80151 8.75474 8.80151 8.75474C8.80151 8.75474 9.44881 9.28335 9.72734 10.0262C9.80327 10.2287 9.95534 10.4386 10.1192 10.627C9.95543 10.5369 9.7916 10.431 9.65088 10.3052C9.00443 9.7273 8.08484 9.66669 8.08484 9.66669C8.08484 9.66669 8.84468 10.0146 9.30185 10.663C9.43507 10.8519 9.65393 11.0286 9.87499 11.1755C9.67788 11.1306 9.47342 11.0686 9.2892 10.9761C8.51421 10.5871 7.6107 10.7687 7.6107 10.7687C7.6107 10.7687 8.43504 10.9062 9.04568 11.4125C9.22582 11.5619 9.48724 11.6761 9.74196 11.7605C9.53726 11.7695 9.32013 11.7638 9.11496 11.7223C8.26503 11.5505 7.44092 11.963 7.44092 11.963C7.44092 11.963 8.27243 11.8791 8.99459 12.2075C9.18992 12.2962 9.44323 12.338 9.69049 12.3557C9.51265 12.4068 9.32393 12.4468 9.1376 12.4572C8.27178 12.5052 7.57831 13.1121 7.57831 13.1121C7.57831 13.1121 8.36178 12.8213 9.14337 12.9569C9.37099 12.9964 9.65041 12.9669 9.91048 12.9146C9.73943 13.022 9.55109 13.1224 9.35562 13.1871C8.5324 13.4595 8.02146 14.2265 8.02146 14.2265C8.02146 14.2265 8.70185 13.7412 9.49174 13.668C9.72631 13.6463 9.99354 13.541 10.2346 13.4197C10.0955 13.5722 9.93673 13.7231 9.7609 13.8398C9.03842 14.3193 8.74737 15.1937 8.74737 15.1937C8.74737 15.1937 9.27598 14.5464 10.0188 14.2679C10.2213 14.1919 10.4312 14.0399 10.6196 13.876C10.5296 14.0397 10.4236 14.2036 10.2979 14.3443C9.71998 14.9907 9.65937 15.9103 9.65937 15.9103C9.65937 15.9103 10.0073 15.1505 10.6556 14.6933C10.8446 14.56 11.0213 14.3412 11.1682 14.1201C11.1233 14.3173 11.0613 14.5217 10.9688 14.706C10.5798 15.481 10.7614 16.3845 10.7614 16.3845C10.7614 16.3845 10.8988 15.5601 11.4052 14.9495C11.5546 14.7694 11.6688 14.5079 11.7531 14.2532C11.7622 14.458 11.7565 14.6751 11.715 14.8803C11.5432 15.7302 11.9557 16.5543 11.9557 16.5543C11.9557 16.5543 11.8718 15.7228 12.2001 15.0006C12.2889 14.8053 12.3307 14.5519 12.3483 14.3047C12.3995 14.4826 12.4395 14.6713 12.4498 14.8576C12.4978 15.7234 13.1048 16.4169 13.1048 16.4169C13.1048 16.4169 12.814 15.6334 12.9496 14.8519C12.9891 14.6242 12.9595 14.3448 12.9073 14.0848C13.0147 14.2558 13.1151 14.4441 13.1798 14.6396C13.4522 15.4628 14.2192 15.9738 14.2192 15.9738C14.2192 15.9738 13.7339 15.2934 13.6607 14.5034C13.639 14.2689 13.5337 14.0016 13.4124 13.7606C13.5648 13.8997 13.7158 14.0584 13.8325 14.2343C14.3119 14.9568 15.1864 15.2478 15.1864 15.2478C15.1864 15.2478 14.5391 14.7192 14.2606 13.9764C14.1846 13.7739 14.0326 13.564 13.8687 13.3756C14.0324 13.4656 14.1963 13.5716 14.337 13.6973C14.9834 14.2752 15.903 14.3358 15.903 14.3358C15.903 14.3358 15.1432 13.9879 14.686 13.3395C14.5527 13.1505 14.3339 12.9739 14.1127 12.827C14.3099 12.8719 14.5143 12.9339 14.6986 13.0264C15.4735 13.4154 16.377 13.2337 16.377 13.2337ZM11.9992 14.1008C10.8389 14.1008 9.89829 13.1602 9.89829 11.9999C9.89829 10.8396 10.8389 9.899 11.9992 9.899C13.1595 9.899 14.1001 10.8396 14.1001 11.9999C14.1001 13.1602 13.1595 14.1008 11.9992 14.1008Z" fill="#FFE15A"/>
<path d="M11.3333 11.1501C11.3782 11.1152 11.4227 11.0801 11.468 11.0488C11.1704 10.9135 10.9024 10.8484 10.7145 10.8193C10.6845 10.8519 10.6575 10.8868 10.6301 10.9215C10.8147 10.9573 11.0627 11.0258 11.3333 11.1501Z" fill="#FFE15A"/>
<path d="M10.8049 10.7258C11.0069 10.7486 11.2993 10.8087 11.6237 10.9483C11.6781 10.9158 11.7322 10.8871 11.7864 10.8594C11.4361 10.7156 11.1199 10.6621 10.9022 10.6455C10.8695 10.672 10.8356 10.697 10.8049 10.7258Z" fill="#FFE15A"/>
<path d="M11.8567 11.7003C11.8148 11.6607 11.7724 11.6233 11.7296 11.5879C11.3362 11.9622 10.9921 12.5082 10.8368 13.3003C10.8933 13.3509 10.9493 13.4019 11.012 13.4449C11.1262 12.6393 11.4607 12.0832 11.8567 11.7003Z" fill="#FFE15A"/>
<path d="M11.7041 11.3523C11.7487 11.3164 11.7932 11.2804 11.8384 11.2483C11.7834 11.2132 11.7286 11.1824 11.6739 11.1523C11.6271 11.1844 11.5802 11.2154 11.5339 11.2515C11.5906 11.2827 11.6472 11.3158 11.7041 11.3523Z" fill="#FFE15A"/>
<path d="M12.791 11.2507C13.1282 11.5469 13.4365 11.964 13.6558 12.5423C13.7121 12.3706 13.7502 12.1906 13.7502 12.0001C13.7502 11.6384 13.6402 11.3024 13.4523 11.0234C13.2784 11.058 13.0449 11.1256 12.791 11.2507Z" fill="#FFE15A"/>
<path d="M11.8694 11.4641C11.9133 11.4968 11.9563 11.5336 11.9996 11.5698C12.0427 11.5336 12.0858 11.4968 12.1297 11.4641C12.0865 11.4281 12.0434 11.3927 11.9996 11.3604C11.9557 11.3927 11.9127 11.4281 11.8694 11.4641Z" fill="#FFE15A"/>
<path d="M11.9996 10.958C11.9446 10.9859 11.8895 11.0174 11.8342 11.0501C11.8893 11.079 11.9442 11.11 11.9996 11.144C12.0549 11.1101 12.1099 11.079 12.1649 11.0501C12.1096 11.0173 12.0545 10.9859 11.9996 10.958Z" fill="#FFE15A"/>
<path d="M10.6461 13.098C10.8313 12.3416 11.1804 11.8235 11.5711 11.467C11.5165 11.4285 11.4621 11.3931 11.4075 11.3604C11.0315 11.691 10.6913 12.1687 10.4817 12.857C10.53 12.9424 10.5846 13.0223 10.6461 13.098Z" fill="#FFE15A"/>
<path d="M11.2079 11.2508C10.9539 11.1256 10.7205 11.0581 10.5465 11.0234C10.3586 11.3024 10.2487 11.6384 10.2487 12.0001C10.2487 12.1906 10.2867 12.3706 10.343 12.5423C10.5624 11.964 10.8706 11.547 11.2079 11.2508Z" fill="#FFE15A"/>
<path d="M11.9996 10.761C12.3721 10.6071 12.7157 10.5524 12.96 10.538C12.6841 10.3563 12.3547 10.249 11.9996 10.249C11.6445 10.249 11.3151 10.3564 11.0392 10.538C11.2835 10.5524 11.6271 10.6071 11.9996 10.761Z" fill="#FFE15A"/>
<path d="M11.9994 11.8477C11.6503 12.2346 11.3621 12.7902 11.2686 13.5858C11.4916 13.6889 11.7376 13.7503 11.9994 13.7503C12.2613 13.7503 12.5073 13.6889 12.7303 13.5858C12.6368 12.7902 12.3486 12.2346 11.9994 11.8477Z" fill="#FFE15A"/>
<path d="M12.5917 11.3604C12.5372 11.3932 12.4828 11.4285 12.4281 11.467C12.8188 11.8234 13.1679 12.3416 13.3531 13.098C13.4146 13.0223 13.4692 12.9424 13.5175 12.857C13.3079 12.1688 12.9677 11.691 12.5917 11.3604Z" fill="#FFE15A"/>
<path d="M13.1621 13.3003C13.0068 12.5082 12.6627 11.9623 12.2693 11.5879C12.2265 11.6233 12.1841 11.6607 12.1422 11.7003C12.5382 12.0832 12.8728 12.6393 12.9869 13.4449C13.0496 13.402 13.1056 13.3509 13.1621 13.3003Z" fill="#FFE15A"/>
<path d="M12.2126 10.8595C12.2668 10.8872 12.321 10.9159 12.3753 10.9483C12.6997 10.8088 12.9921 10.7486 13.1941 10.7258C13.1635 10.697 13.1295 10.6721 13.0968 10.6455C12.8792 10.6621 12.5629 10.7157 12.2126 10.8595Z" fill="#FFE15A"/>
<path d="M12.2949 11.3523C12.3519 11.3158 12.4085 11.2827 12.4651 11.2515C12.4189 11.2154 12.372 11.1844 12.3252 11.1523C12.2705 11.1824 12.2157 11.2132 12.1606 11.2483C12.2058 11.2804 12.2504 11.3165 12.2949 11.3523Z" fill="#FFE15A"/>
<path d="M12.6655 11.1501C12.9361 11.0257 13.1842 10.9573 13.3687 10.9215C13.3412 10.8868 13.3143 10.8518 13.2843 10.8193C13.0964 10.8484 12.8284 10.9134 12.5308 11.0488C12.5761 11.08 12.6208 11.1151 12.6655 11.1501Z" fill="#FFE15A"/>
</g>
<defs>
<clipPath id="clip0_2379_4096">
<rect width="24" height="24" fill="white"/>
</clipPath>
</defs>
</svg>
