<svg width="166" height="166" viewBox="0 0 166 166" fill="none" xmlns="http://www.w3.org/2000/svg">
<g clip-path="url(#clip0_48_1701)">
<path d="M159.516 46.5312C158.895 46.5312 158.259 46.6205 157.624 46.7951L150.437 48.7744L142.973 30.5927C140.859 25.4423 134.609 21.2523 129.041 21.2523H59.1919C53.6247 21.2523 47.3738 25.4423 45.2594 30.5927L37.806 48.7496L30.7081 46.7951C30.0921 46.6229 29.4558 46.5341 28.8161 46.5312C25.4195 46.5312 22.9546 49.1262 22.9546 52.7018V56.939C22.9546 57.1123 22.9686 57.2825 22.9807 57.4539C19.9871 59.3379 17.2133 61.5504 14.7109 64.0502C5.80457 72.956 0.898926 84.7988 0.898926 97.3956C0.898926 109.993 5.80457 121.835 14.7116 130.741C23.6192 139.648 35.4615 144.554 48.0576 144.554C60.6537 144.554 72.4966 139.649 81.4036 130.741C86.5954 125.55 90.4158 119.356 92.7099 112.601H136.641V121.621C136.641 125.795 140.036 129.19 144.21 129.19H154.094C158.268 129.19 161.663 125.795 161.663 121.621V85.5011C161.663 80.3278 160.065 72.2263 158.101 67.4411L156.896 64.5071H157.809C161.983 64.5071 165.378 61.1118 165.378 56.9384V52.7012C165.378 49.1262 162.913 46.5312 159.516 46.5312ZM54.5226 32.8964C55.787 29.8152 59.5475 27.2948 62.8771 27.2948H125.355C128.685 27.2948 132.445 29.8152 133.709 32.8964L145 60.3968C146.264 63.478 144.574 65.9983 141.244 65.9983H83.2377C82.644 65.3319 82.0322 64.6819 81.403 64.0489C72.4947 55.1413 60.6525 50.2363 48.057 50.2363C47.8358 50.2363 47.6179 50.249 47.3974 50.2522L54.5226 32.8964ZM48.0576 130.44C39.2315 130.44 30.9337 127.002 24.6924 120.76C18.451 114.519 15.0143 106.222 15.0143 97.3956C15.0143 88.5689 18.4517 80.2717 24.6924 74.0304C30.9337 67.7897 39.2315 64.3523 48.0576 64.3523C56.8837 64.3523 65.1815 67.7897 71.4228 74.0304C77.6635 80.2717 81.1009 88.5689 81.1009 97.3956C81.1009 106.222 77.6642 114.519 71.4228 120.76C65.1808 127.002 56.8837 130.44 48.0576 130.44ZM147.095 95.1811C147.093 95.9834 146.773 96.7521 146.206 97.3194C145.639 97.8867 144.87 98.2064 144.068 98.2087H122.622C121.82 98.2064 121.051 97.8867 120.483 97.3194C119.916 96.7521 119.596 95.9834 119.594 95.1811V84.8881C119.596 84.0858 119.916 83.3171 120.483 82.7498C121.051 82.1825 121.82 81.8628 122.622 81.8604H144.068C144.87 81.8628 145.639 82.1825 146.206 82.7498C146.773 83.3171 147.093 84.0858 147.095 84.8881V95.1811Z" fill="#19746B"/>
<path d="M69.8216 78.1923C67.1234 76.2117 63.3298 76.7916 61.3479 79.4904L44.0418 103.056L33.4466 95.35C30.7402 93.3802 26.9485 93.9786 24.9793 96.6869C24.5111 97.3307 24.1742 98.0603 23.988 98.8343C23.8018 99.6082 23.7698 100.411 23.894 101.198C24.0181 101.984 24.296 102.738 24.7116 103.417C25.1272 104.096 25.6725 104.686 26.3163 105.154L40.482 115.457C41.7917 116.412 43.3714 116.926 44.9926 116.924C47.3594 116.924 49.6975 115.839 51.1989 113.793L71.1203 86.6666C73.1016 83.9685 72.5204 80.1742 69.8216 78.1923Z" fill="#19746B"/>
</g>
<defs>
<clipPath id="clip0_48_1701">
<rect width="164.479" height="164.479" fill="white" transform="translate(0.898926 0.663696)"/>
</clipPath>
</defs>
</svg>
