<svg width="166" height="122" viewBox="0 0 166 122" fill="none" xmlns="http://www.w3.org/2000/svg">
<path d="M159.912 24.0613C159.337 24.0613 158.747 24.1439 158.158 24.3057L151.493 26.1417L144.571 9.28297C142.609 4.50692 136.814 0.621338 131.65 0.621338H66.8703C61.707 0.621338 55.9106 4.50692 53.9492 9.28297L47.0376 26.1188L40.4555 24.3057C39.8844 24.1458 39.2943 24.0636 38.7012 24.0613C35.5511 24.0613 33.2646 26.4673 33.2646 29.7835V33.7123C33.2646 33.884 33.2784 34.0518 33.2902 34.2202C31.7537 35.3651 30.3023 36.6199 28.9474 37.9747C21.5756 45.3455 17.5159 55.1446 17.5159 65.5682C17.5159 74.0182 20.185 82.0587 25.1229 88.7264L2.57847 111.269C2.03608 111.812 1.60584 112.455 1.3123 113.164C1.01876 113.873 0.867676 114.632 0.867676 115.399C0.867676 116.166 1.01876 116.925 1.3123 117.634C1.60584 118.343 2.03608 118.986 2.57847 119.529C3.1201 120.072 3.76381 120.503 4.47256 120.796C5.18132 121.09 5.94114 121.241 6.70832 121.24C8.20311 121.24 9.6979 120.669 10.8382 119.529L33.3839 96.9857C40.0531 101.924 48.0939 104.592 56.545 104.592C66.9699 104.592 76.7709 100.533 84.142 93.1624C86.4882 90.818 88.5276 88.1857 90.2116 85.3283H138.697V93.6925C138.697 97.5623 141.846 100.711 145.716 100.711H154.883C158.754 100.711 161.903 97.5623 161.903 93.6925V60.1985C161.903 55.4021 160.42 47.8891 158.598 43.4519L157.481 40.7306H158.328C162.198 40.7306 165.347 37.5822 165.347 33.7117V29.7829C165.349 26.4673 163.063 24.0613 159.912 24.0613ZM62.5412 11.4178C63.7142 8.5609 67.2005 6.22365 70.2897 6.22365H128.232C131.321 6.22365 134.808 8.5609 135.981 11.4178L146.451 36.9191C147.624 39.7759 146.056 42.1132 142.968 42.1132H87.739C86.6376 40.6522 85.4361 39.2694 84.1433 37.9747C76.7715 30.6039 66.9712 26.5447 56.5463 26.5447C56.4736 26.5447 56.4021 26.5492 56.3294 26.5499L62.5412 11.4178ZM56.545 92.9114C49.2408 92.9114 42.373 90.067 37.2077 84.9024C32.0425 79.7385 29.1984 72.8722 29.1984 65.5682C29.1984 58.2642 32.0431 51.398 37.2077 46.2334C42.373 41.0694 49.2401 38.225 56.545 38.225C63.8499 38.225 70.717 41.0694 75.8823 46.2334C81.0475 51.398 83.8916 58.2642 83.8916 65.5676C83.8916 72.8715 81.0475 79.7378 75.8823 84.9024C70.717 90.067 63.8499 92.9114 56.545 92.9114ZM148.394 69.1747C148.392 69.9187 148.095 70.6316 147.569 71.1577C147.043 71.6838 146.33 71.9803 145.586 71.9824H125.696C124.952 71.9801 124.239 71.6836 123.713 71.1575C123.187 70.6315 122.89 69.9186 122.888 69.1747V59.6304C122.89 58.8865 123.187 58.1736 123.713 57.6475C124.239 57.1215 124.952 56.825 125.696 56.8227H145.586C146.33 56.8248 147.043 57.1213 147.569 57.6474C148.095 58.1735 148.392 58.8864 148.394 59.6304V69.1747Z" fill="#19746B"/>
</svg>
