<svg width="24" height="24" viewBox="0 0 24 24" fill="none" xmlns="http://www.w3.org/2000/svg">
<g clip-path="url(#clip0_2379_4121)">
<path d="M23.5861 19.8618H0.413812C0.185297 19.8618 0 19.6765 0 19.448V4.55151C0 4.32299 0.185297 4.1377 0.413812 4.1377H23.5862C23.8147 4.1377 24 4.32299 24 4.55151V19.448C24 19.6766 23.8147 19.8618 23.5861 19.8618Z" fill="#F4F4F0"/>
<path d="M24 5.3473H0V4.55151C0 4.32299 0.185297 4.1377 0.413812 4.1377H23.5862C23.8147 4.1377 24 4.32299 24 4.55151L24 5.3473Z" fill="#FF4B55"/>
<path d="M24 8.97559H0V10.1851H24V8.97559Z" fill="#FF4B55"/>
<path d="M24 6.55664H0V7.7662H24V6.55664Z" fill="#FF4B55"/>
<path d="M24 12.6041H0.413812C0.185297 12.6041 0 12.4188 0 12.1903V11.3945H24V12.6041Z" fill="#FF4B55"/>
<path d="M24 16.2334H0V17.443H24V16.2334Z" fill="#FF4B55"/>
<path d="M23.5861 19.8619H0.413812C0.185297 19.8619 0 19.6766 0 19.4481V18.6523H24V19.4481C24 19.6767 23.8147 19.8619 23.5861 19.8619Z" fill="#FF4B55"/>
<path d="M24 13.8145H0V15.024H24V13.8145Z" fill="#FF4B55"/>
<path d="M10.7586 4.1377H0.413812C0.185297 4.1377 0 4.32294 0 4.55146V12.1907C0 12.4192 0.185297 12.6045 0.413812 12.6045H10.7586C10.9872 12.6045 11.1724 12.4192 11.1724 12.1907V4.55146C11.1724 4.32294 10.9871 4.1377 10.7586 4.1377Z" fill="#41479B"/>
<path d="M1.16247 5.0882L1.25406 5.36289L1.54361 5.36509C1.58111 5.36542 1.59663 5.41323 1.56648 5.4355L1.33356 5.60753L1.42094 5.88357C1.43228 5.91929 1.39155 5.94892 1.36103 5.92707L1.12549 5.75875L0.889939 5.92712C0.859424 5.94892 0.818783 5.91934 0.830033 5.88362L0.917408 5.60757L0.684487 5.43554C0.654346 5.41323 0.669862 5.36547 0.707361 5.36514L0.996908 5.36293L1.0885 5.08825C1.10031 5.05262 1.15056 5.05262 1.16247 5.0882Z" fill="#F4F4F0"/>
<path d="M1.1621 6.52469L1.2537 6.79938L1.54324 6.80158C1.58074 6.80191 1.59626 6.84972 1.56612 6.87199L1.3332 7.04402L1.42057 7.32006C1.43192 7.35578 1.39118 7.38541 1.36067 7.36356L1.12512 7.19524L0.889573 7.36361C0.859057 7.38541 0.818417 7.35583 0.829667 7.32011L0.917042 7.04406L0.68412 6.87203C0.65398 6.84972 0.669495 6.80196 0.706995 6.80163L0.996542 6.79942L1.08814 6.52474C1.09995 6.48916 1.1502 6.48916 1.1621 6.52469Z" fill="#F4F4F0"/>
<path d="M1.1621 7.96219L1.2537 8.23688L1.54324 8.23908C1.58074 8.23941 1.59626 8.28722 1.56612 8.30949L1.3332 8.48152L1.42057 8.75756C1.43192 8.79328 1.39118 8.82291 1.36067 8.80106L1.12512 8.63273L0.889573 8.80111C0.859057 8.82291 0.818417 8.79333 0.829667 8.75761L0.917042 8.48156L0.68412 8.30953C0.65398 8.28722 0.669495 8.23945 0.706995 8.23913L0.996542 8.23692L1.08814 7.96224C1.09995 7.92666 1.1502 7.92666 1.1621 7.96219Z" fill="#F4F4F0"/>
<path d="M1.1621 9.39875L1.2537 9.67343L1.54324 9.67564C1.58074 9.67597 1.59626 9.72378 1.56612 9.74604L1.3332 9.91808L1.42057 10.1941C1.43192 10.2298 1.39118 10.2595 1.36067 10.2376L1.12512 10.0693L0.889573 10.2377C0.859057 10.2595 0.818417 10.2299 0.829667 10.1942L0.917042 9.91812L0.68412 9.74609C0.65398 9.72378 0.669495 9.67601 0.706995 9.67568L0.996542 9.67348L1.08814 9.39879C1.09995 9.36317 1.1502 9.36317 1.1621 9.39875Z" fill="#F4F4F0"/>
<path d="M1.1621 10.8363L1.2537 11.111L1.54324 11.1132C1.58074 11.1135 1.59626 11.1613 1.56612 11.1836L1.3332 11.3556L1.42057 11.6317C1.43192 11.6674 1.39118 11.697 1.36067 11.6752L1.12512 11.5068L0.889573 11.6752C0.859057 11.697 0.818417 11.6674 0.829667 11.6317L0.917042 11.3557L0.68412 11.1836C0.65398 11.1613 0.669495 11.1135 0.706995 11.1132L0.996542 11.111L1.08814 10.8363C1.09995 10.8007 1.1502 10.8007 1.1621 10.8363Z" fill="#F4F4F0"/>
<path d="M2.27734 5.79227L2.36893 6.06696L2.65848 6.06916C2.69598 6.06949 2.71149 6.1173 2.68135 6.13957L2.44843 6.3116L2.53581 6.58765C2.54715 6.62337 2.50642 6.65299 2.4759 6.63115L2.24035 6.46277L2.00481 6.63115C1.97429 6.65294 1.93365 6.62337 1.9449 6.58765L2.03228 6.3116L1.79935 6.13957C1.76921 6.11726 1.78473 6.06949 1.82223 6.06916L2.11178 6.06696L2.20337 5.79227C2.21514 5.75674 2.26548 5.75674 2.27734 5.79227Z" fill="#F4F4F0"/>
<path d="M2.27734 7.22981L2.36893 7.50449L2.65848 7.5067C2.69598 7.50703 2.71149 7.55484 2.68135 7.5771L2.44843 7.74913L2.53581 8.02518C2.54715 8.0609 2.50642 8.09052 2.4759 8.06868L2.24035 7.90031L2.00481 8.06868C1.97429 8.09048 1.93365 8.06095 1.9449 8.02518L2.03228 7.74913L1.79935 7.5771C1.76921 7.55479 1.78473 7.50703 1.82223 7.5067L2.11178 7.50449L2.20337 7.22981C2.21514 7.19423 2.26548 7.19423 2.27734 7.22981Z" fill="#F4F4F0"/>
<path d="M2.27734 8.66633L2.36893 8.94102L2.65848 8.94322C2.69598 8.94355 2.71149 8.99136 2.68135 9.01363L2.44843 9.18566L2.53581 9.46171C2.54715 9.49742 2.50642 9.52705 2.4759 9.50521L2.24035 9.33683L2.00481 9.50521C1.97429 9.527 1.93365 9.49742 1.9449 9.46171L2.03228 9.18566L1.79935 9.01363C1.76921 8.99132 1.78473 8.94355 1.82223 8.94322L2.11178 8.94102L2.20337 8.66633C2.21514 8.63075 2.26548 8.63075 2.27734 8.66633Z" fill="#F4F4F0"/>
<path d="M2.27734 10.1038L2.36893 10.3785L2.65848 10.3807C2.69598 10.381 2.71149 10.4288 2.68135 10.4511L2.44843 10.6231L2.53581 10.8992C2.54715 10.9349 2.50642 10.9645 2.4759 10.9427L2.24035 10.7743L2.00481 10.9427C1.97429 10.9645 1.93365 10.9349 1.9449 10.8992L2.03228 10.6231L1.79935 10.4511C1.76921 10.4288 1.78473 10.381 1.82223 10.3807L2.11178 10.3785L2.20337 10.1038C2.21514 10.0683 2.26548 10.0683 2.27734 10.1038Z" fill="#F4F4F0"/>
<path d="M3.39269 5.08821L3.48429 5.36289L3.77383 5.3651C3.81133 5.36542 3.82685 5.41324 3.79671 5.4355L3.56379 5.60753L3.65116 5.88358C3.66251 5.9193 3.62177 5.94892 3.59126 5.92708L3.35571 5.7587L3.12016 5.92708C3.08965 5.94888 3.04901 5.9193 3.06026 5.88358L3.14763 5.60753L2.91471 5.4355C2.88457 5.41319 2.90009 5.36542 2.93759 5.3651L3.22713 5.36289L3.31873 5.08821C3.33054 5.05263 3.38084 5.05263 3.39269 5.08821Z" fill="#F4F4F0"/>
<path d="M3.39269 6.5247L3.48429 6.79938L3.77383 6.80159C3.81133 6.80191 3.82685 6.84973 3.79671 6.87199L3.56379 7.04402L3.65116 7.32007C3.66251 7.35579 3.62177 7.38541 3.59126 7.36357L3.35571 7.19519L3.12016 7.36357C3.08965 7.38537 3.04901 7.35579 3.06026 7.32007L3.14763 7.04402L2.91471 6.87199C2.88457 6.84968 2.90009 6.80191 2.93759 6.80159L3.22713 6.79938L3.31873 6.5247C3.33054 6.48916 3.38084 6.48916 3.39269 6.5247Z" fill="#F4F4F0"/>
<path d="M3.39269 7.9622L3.48429 8.23688L3.77383 8.23909C3.81133 8.23941 3.82685 8.28723 3.79671 8.30949L3.56379 8.48152L3.65116 8.75757C3.66251 8.79329 3.62177 8.82291 3.59126 8.80107L3.35571 8.6327L3.12016 8.80107C3.08965 8.82287 3.04901 8.79329 3.06026 8.75757L3.14763 8.48152L2.91471 8.30949C2.88457 8.28718 2.90009 8.23941 2.93759 8.23909L3.22713 8.23688L3.31873 7.9622C3.33054 7.92666 3.38084 7.92666 3.39269 7.9622Z" fill="#F4F4F0"/>
<path d="M3.39269 9.39875L3.48429 9.67344L3.77383 9.67564C3.81133 9.67597 3.82685 9.72378 3.79671 9.74605L3.56379 9.91808L3.65116 10.1941C3.66251 10.2298 3.62177 10.2595 3.59126 10.2376L3.35571 10.0693L3.12016 10.2376C3.08965 10.2594 3.04901 10.2298 3.06026 10.1941L3.14763 9.91808L2.91471 9.74605C2.88457 9.72374 2.90009 9.67597 2.93759 9.67564L3.22713 9.67344L3.31873 9.39875C3.33054 9.36318 3.38084 9.36318 3.39269 9.39875Z" fill="#F4F4F0"/>
<path d="M3.39269 10.8363L3.48429 11.111L3.77383 11.1132C3.81133 11.1135 3.82685 11.1613 3.79671 11.1836L3.56379 11.3556L3.65116 11.6317C3.66251 11.6674 3.62177 11.697 3.59126 11.6752L3.35571 11.5068L3.12016 11.6752C3.08965 11.697 3.04901 11.6674 3.06026 11.6317L3.14763 11.3556L2.91471 11.1836C2.88457 11.1613 2.90009 11.1135 2.93759 11.1132L3.22713 11.111L3.31873 10.8363C3.33054 10.8007 3.38084 10.8007 3.39269 10.8363Z" fill="#F4F4F0"/>
<path d="M4.50805 5.79227L4.59964 6.06696L4.88919 6.06916C4.92669 6.06949 4.94221 6.1173 4.91207 6.13957L4.67914 6.3116L4.76652 6.58765C4.77786 6.62337 4.73713 6.65299 4.70661 6.63115L4.47107 6.46277L4.23552 6.63115C4.205 6.65294 4.16436 6.62337 4.17561 6.58765L4.26299 6.3116L4.03007 6.13957C3.99993 6.11726 4.01544 6.06949 4.05294 6.06916L4.34249 6.06696L4.43408 5.79227C4.44585 5.75674 4.49619 5.75674 4.50805 5.79227Z" fill="#F4F4F0"/>
<path d="M4.50805 7.22981L4.59964 7.50449L4.88919 7.5067C4.92669 7.50703 4.94221 7.55484 4.91207 7.5771L4.67914 7.74913L4.76652 8.02518C4.77786 8.0609 4.73713 8.09052 4.70661 8.06868L4.47107 7.90031L4.23552 8.06868C4.205 8.09048 4.16436 8.06095 4.17561 8.02518L4.26299 7.74913L4.03007 7.5771C3.99993 7.55479 4.01544 7.50703 4.05294 7.5067L4.34249 7.50449L4.43408 7.22981C4.44585 7.19423 4.49619 7.19423 4.50805 7.22981Z" fill="#F4F4F0"/>
<path d="M4.50805 8.66633L4.59964 8.94102L4.88919 8.94322C4.92669 8.94355 4.94221 8.99136 4.91207 9.01363L4.67914 9.18566L4.76652 9.46171C4.77786 9.49742 4.73713 9.52705 4.70661 9.50521L4.47107 9.33683L4.23552 9.50521C4.205 9.527 4.16436 9.49742 4.17561 9.46171L4.26299 9.18566L4.03007 9.01363C3.99993 8.99132 4.01544 8.94355 4.05294 8.94322L4.34249 8.94102L4.43408 8.66633C4.44585 8.63075 4.49619 8.63075 4.50805 8.66633Z" fill="#F4F4F0"/>
<path d="M4.50805 10.1038L4.59964 10.3785L4.88919 10.3807C4.92669 10.381 4.94221 10.4288 4.91207 10.4511L4.67914 10.6231L4.76652 10.8992C4.77786 10.9349 4.73713 10.9645 4.70661 10.9427L4.47107 10.7743L4.23552 10.9427C4.205 10.9645 4.16436 10.9349 4.17561 10.8992L4.26299 10.6231L4.03007 10.4511C3.99993 10.4288 4.01544 10.381 4.05294 10.3807L4.34249 10.3785L4.43408 10.1038C4.44585 10.0683 4.49619 10.0683 4.50805 10.1038Z" fill="#F4F4F0"/>
<path d="M5.62333 5.08821L5.71493 5.36289L6.00447 5.3651C6.04197 5.36542 6.05749 5.41324 6.02735 5.4355L5.79443 5.60753L5.8818 5.88358C5.89314 5.9193 5.85241 5.94892 5.82189 5.92708L5.5863 5.7587L5.35075 5.92708C5.32024 5.94888 5.2796 5.9193 5.29085 5.88358L5.37822 5.60753L5.1453 5.4355C5.11516 5.41319 5.13068 5.36542 5.16818 5.3651L5.45772 5.36289L5.54932 5.08821C5.56118 5.05263 5.61147 5.05263 5.62333 5.08821Z" fill="#F4F4F0"/>
<path d="M5.62333 6.5247L5.71493 6.79938L6.00447 6.80159C6.04197 6.80191 6.05749 6.84973 6.02735 6.87199L5.79443 7.04402L5.8818 7.32007C5.89314 7.35579 5.85241 7.38541 5.82189 7.36357L5.5863 7.19519L5.35075 7.36357C5.32024 7.38537 5.2796 7.35579 5.29085 7.32007L5.37822 7.04402L5.1453 6.87199C5.11516 6.84968 5.13068 6.80191 5.16818 6.80159L5.45772 6.79938L5.54932 6.5247C5.56118 6.48916 5.61147 6.48916 5.62333 6.5247Z" fill="#F4F4F0"/>
<path d="M5.62333 7.9622L5.71493 8.23688L6.00447 8.23909C6.04197 8.23941 6.05749 8.28723 6.02735 8.30949L5.79443 8.48152L5.8818 8.75757C5.89314 8.79329 5.85241 8.82291 5.82189 8.80107L5.5863 8.6327L5.35075 8.80107C5.32024 8.82287 5.2796 8.79329 5.29085 8.75757L5.37822 8.48152L5.1453 8.30949C5.11516 8.28718 5.13068 8.23941 5.16818 8.23909L5.45772 8.23688L5.54932 7.9622C5.56118 7.92666 5.61147 7.92666 5.62333 7.9622Z" fill="#F4F4F0"/>
<path d="M5.62333 9.39875L5.71493 9.67344L6.00447 9.67564C6.04197 9.67597 6.05749 9.72378 6.02735 9.74605L5.79443 9.91808L5.8818 10.1941C5.89314 10.2298 5.85241 10.2595 5.82189 10.2376L5.5863 10.0693L5.35075 10.2376C5.32024 10.2594 5.2796 10.2298 5.29085 10.1941L5.37822 9.91808L5.1453 9.74605C5.11516 9.72374 5.13068 9.67597 5.16818 9.67564L5.45772 9.67344L5.54932 9.39875C5.56118 9.36318 5.61147 9.36318 5.62333 9.39875Z" fill="#F4F4F0"/>
<path d="M5.62333 10.8363L5.71493 11.111L6.00447 11.1132C6.04197 11.1135 6.05749 11.1613 6.02735 11.1836L5.79443 11.3556L5.8818 11.6317C5.89314 11.6674 5.85241 11.697 5.82189 11.6752L5.5863 11.5068L5.35075 11.6752C5.32024 11.697 5.2796 11.6674 5.29085 11.6317L5.37822 11.3556L5.1453 11.1836C5.11516 11.1613 5.13068 11.1135 5.16818 11.1132L5.45772 11.111L5.54932 10.8363C5.56118 10.8007 5.61147 10.8007 5.62333 10.8363Z" fill="#F4F4F0"/>
<path d="M6.73864 5.79227L6.83024 6.06696L7.11978 6.06916C7.15728 6.06949 7.1728 6.1173 7.14266 6.13957L6.90974 6.3116L6.99711 6.58765C7.00845 6.62337 6.96772 6.65299 6.9372 6.63115L6.70166 6.46277L6.46611 6.63115C6.4356 6.65294 6.39495 6.62337 6.4062 6.58765L6.49358 6.3116L6.26066 6.13957C6.23052 6.11726 6.24603 6.06949 6.28353 6.06916L6.57308 6.06696L6.66467 5.79227C6.67653 5.75674 6.72678 5.75674 6.73864 5.79227Z" fill="#F4F4F0"/>
<path d="M6.73864 7.22981L6.83024 7.50449L7.11978 7.5067C7.15728 7.50703 7.1728 7.55484 7.14266 7.5771L6.90974 7.74913L6.99711 8.02518C7.00845 8.0609 6.96772 8.09052 6.9372 8.06868L6.70166 7.90031L6.46611 8.06868C6.4356 8.09048 6.39495 8.06095 6.4062 8.02518L6.49358 7.74913L6.26066 7.5771C6.23052 7.55479 6.24603 7.50703 6.28353 7.5067L6.57308 7.50449L6.66467 7.22981C6.67653 7.19423 6.72678 7.19423 6.73864 7.22981Z" fill="#F4F4F0"/>
<path d="M6.73864 8.66633L6.83024 8.94102L7.11978 8.94322C7.15728 8.94355 7.1728 8.99136 7.14266 9.01363L6.90974 9.18566L6.99711 9.46171C7.00845 9.49742 6.96772 9.52705 6.9372 9.50521L6.70166 9.33683L6.46611 9.50521C6.4356 9.527 6.39495 9.49742 6.4062 9.46171L6.49358 9.18566L6.26066 9.01363C6.23052 8.99132 6.24603 8.94355 6.28353 8.94322L6.57308 8.94102L6.66467 8.66633C6.67653 8.63075 6.72678 8.63075 6.73864 8.66633Z" fill="#F4F4F0"/>
<path d="M6.73864 10.1038L6.83024 10.3785L7.11978 10.3807C7.15728 10.381 7.1728 10.4288 7.14266 10.4511L6.90974 10.6231L6.99711 10.8992C7.00845 10.9349 6.96772 10.9645 6.9372 10.9427L6.70166 10.7743L6.46611 10.9427C6.4356 10.9645 6.39495 10.9349 6.4062 10.8992L6.49358 10.6231L6.26066 10.4511C6.23052 10.4288 6.24603 10.381 6.28353 10.3807L6.57308 10.3785L6.66467 10.1038C6.67653 10.0683 6.72678 10.0683 6.73864 10.1038Z" fill="#F4F4F0"/>
<path d="M7.854 5.08821L7.94559 5.36289L8.23514 5.3651C8.27264 5.36542 8.28816 5.41324 8.25801 5.4355L8.02509 5.60753L8.11247 5.88358C8.12381 5.9193 8.08308 5.94892 8.05256 5.92708L7.81701 5.7587L7.58147 5.92708C7.55095 5.94888 7.51031 5.9193 7.52156 5.88358L7.60894 5.60753L7.37601 5.4355C7.34587 5.41319 7.36139 5.36542 7.39889 5.3651L7.68844 5.36289L7.78003 5.08821C7.7918 5.05263 7.84214 5.05263 7.854 5.08821Z" fill="#F4F4F0"/>
<path d="M7.854 6.5247L7.94559 6.79938L8.23514 6.80159C8.27264 6.80191 8.28816 6.84973 8.25801 6.87199L8.02509 7.04402L8.11247 7.32007C8.12381 7.35579 8.08308 7.38541 8.05256 7.36357L7.81701 7.19519L7.58147 7.36357C7.55095 7.38537 7.51031 7.35579 7.52156 7.32007L7.60894 7.04402L7.37601 6.87199C7.34587 6.84968 7.36139 6.80191 7.39889 6.80159L7.68844 6.79938L7.78003 6.5247C7.7918 6.48916 7.84214 6.48916 7.854 6.5247Z" fill="#F4F4F0"/>
<path d="M7.854 7.9622L7.94559 8.23688L8.23514 8.23909C8.27264 8.23941 8.28816 8.28723 8.25801 8.30949L8.02509 8.48152L8.11247 8.75757C8.12381 8.79329 8.08308 8.82291 8.05256 8.80107L7.81701 8.6327L7.58147 8.80107C7.55095 8.82287 7.51031 8.79329 7.52156 8.75757L7.60894 8.48152L7.37601 8.30949C7.34587 8.28718 7.36139 8.23941 7.39889 8.23909L7.68844 8.23688L7.78003 7.9622C7.7918 7.92666 7.84214 7.92666 7.854 7.9622Z" fill="#F4F4F0"/>
<path d="M7.854 9.39875L7.94559 9.67344L8.23514 9.67564C8.27264 9.67597 8.28816 9.72378 8.25801 9.74605L8.02509 9.91808L8.11247 10.1941C8.12381 10.2298 8.08308 10.2595 8.05256 10.2376L7.81701 10.0693L7.58147 10.2376C7.55095 10.2594 7.51031 10.2298 7.52156 10.1941L7.60894 9.91808L7.37601 9.74605C7.34587 9.72374 7.36139 9.67597 7.39889 9.67564L7.68844 9.67344L7.78003 9.39875C7.7918 9.36318 7.84214 9.36318 7.854 9.39875Z" fill="#F4F4F0"/>
<path d="M7.854 10.8363L7.94559 11.111L8.23514 11.1132C8.27264 11.1135 8.28816 11.1613 8.25801 11.1836L8.02509 11.3556L8.11247 11.6317C8.12381 11.6674 8.08308 11.697 8.05256 11.6752L7.81701 11.5068L7.58147 11.6752C7.55095 11.697 7.51031 11.6674 7.52156 11.6317L7.60894 11.3556L7.37601 11.1836C7.34587 11.1613 7.36139 11.1135 7.39889 11.1132L7.68844 11.111L7.78003 10.8363C7.7918 10.8007 7.84214 10.8007 7.854 10.8363Z" fill="#F4F4F0"/>
<path d="M8.96923 5.79227L9.06083 6.06696L9.35037 6.06916C9.38787 6.06949 9.40339 6.1173 9.37325 6.13957L9.14033 6.3116L9.2277 6.58765C9.23904 6.62337 9.19831 6.65299 9.16779 6.63115L8.93225 6.46277L8.6967 6.63115C8.66619 6.65294 8.62555 6.62337 8.6368 6.58765L8.72417 6.3116L8.49125 6.13957C8.46111 6.11726 8.47662 6.06949 8.51412 6.06916L8.80367 6.06696L8.89526 5.79227C8.90708 5.75674 8.95742 5.75674 8.96923 5.79227Z" fill="#F4F4F0"/>
<path d="M8.96923 7.22981L9.06083 7.50449L9.35037 7.5067C9.38787 7.50703 9.40339 7.55484 9.37325 7.5771L9.14033 7.74913L9.2277 8.02518C9.23904 8.0609 9.19831 8.09052 9.16779 8.06868L8.93225 7.90031L8.6967 8.06868C8.66619 8.09048 8.62555 8.06095 8.6368 8.02518L8.72417 7.74913L8.49125 7.5771C8.46111 7.55479 8.47662 7.50703 8.51412 7.5067L8.80367 7.50449L8.89526 7.22981C8.90708 7.19423 8.95742 7.19423 8.96923 7.22981Z" fill="#F4F4F0"/>
<path d="M8.96923 8.66633L9.06083 8.94102L9.35037 8.94322C9.38787 8.94355 9.40339 8.99136 9.37325 9.01363L9.14033 9.18566L9.2277 9.46171C9.23904 9.49742 9.19831 9.52705 9.16779 9.50521L8.93225 9.33683L8.6967 9.50521C8.66619 9.527 8.62555 9.49742 8.6368 9.46171L8.72417 9.18566L8.49125 9.01363C8.46111 8.99132 8.47662 8.94355 8.51412 8.94322L8.80367 8.94102L8.89526 8.66633C8.90708 8.63075 8.95742 8.63075 8.96923 8.66633Z" fill="#F4F4F0"/>
<path d="M8.96923 10.1038L9.06083 10.3785L9.35037 10.3807C9.38787 10.381 9.40339 10.4288 9.37325 10.4511L9.14033 10.6231L9.2277 10.8992C9.23904 10.9349 9.19831 10.9645 9.16779 10.9427L8.93225 10.7743L8.6967 10.9427C8.66619 10.9645 8.62555 10.9349 8.6368 10.8992L8.72417 10.6231L8.49125 10.4511C8.46111 10.4288 8.47662 10.381 8.51412 10.3807L8.80367 10.3785L8.89526 10.1038C8.90708 10.0683 8.95742 10.0683 8.96923 10.1038Z" fill="#F4F4F0"/>
<path d="M10.0846 5.08821L10.1762 5.36289L10.4657 5.3651C10.5032 5.36542 10.5187 5.41324 10.4886 5.4355L10.2557 5.60753L10.3431 5.88358C10.3544 5.9193 10.3137 5.94892 10.2832 5.92708L10.0476 5.7587L9.81206 5.92708C9.78154 5.94888 9.7409 5.9193 9.75215 5.88358L9.83953 5.60753L9.60661 5.4355C9.57646 5.41319 9.59198 5.36542 9.62948 5.3651L9.91903 5.36289L10.0106 5.08821C10.0224 5.05263 10.0727 5.05263 10.0846 5.08821Z" fill="#F4F4F0"/>
<path d="M10.0846 6.5247L10.1762 6.79938L10.4657 6.80159C10.5032 6.80191 10.5187 6.84973 10.4886 6.87199L10.2557 7.04402L10.3431 7.32007C10.3544 7.35579 10.3137 7.38541 10.2832 7.36357L10.0476 7.19519L9.81206 7.36357C9.78154 7.38537 9.7409 7.35579 9.75215 7.32007L9.83953 7.04402L9.60661 6.87199C9.57646 6.84968 9.59198 6.80191 9.62948 6.80159L9.91903 6.79938L10.0106 6.5247C10.0224 6.48916 10.0727 6.48916 10.0846 6.5247Z" fill="#F4F4F0"/>
<path d="M10.0846 7.9622L10.1762 8.23688L10.4657 8.23909C10.5032 8.23941 10.5187 8.28723 10.4886 8.30949L10.2557 8.48152L10.3431 8.75757C10.3544 8.79329 10.3137 8.82291 10.2832 8.80107L10.0476 8.6327L9.81206 8.80107C9.78154 8.82287 9.7409 8.79329 9.75215 8.75757L9.83953 8.48152L9.60661 8.30949C9.57646 8.28718 9.59198 8.23941 9.62948 8.23909L9.91903 8.23688L10.0106 7.9622C10.0224 7.92666 10.0727 7.92666 10.0846 7.9622Z" fill="#F4F4F0"/>
<path d="M10.0846 9.39875L10.1762 9.67344L10.4657 9.67564C10.5032 9.67597 10.5187 9.72378 10.4886 9.74605L10.2557 9.91808L10.3431 10.1941C10.3544 10.2298 10.3137 10.2595 10.2832 10.2376L10.0476 10.0693L9.81206 10.2376C9.78154 10.2594 9.7409 10.2298 9.75215 10.1941L9.83953 9.91808L9.60661 9.74605C9.57646 9.72374 9.59198 9.67597 9.62948 9.67564L9.91903 9.67344L10.0106 9.39875C10.0224 9.36318 10.0727 9.36318 10.0846 9.39875Z" fill="#F4F4F0"/>
<path d="M10.0846 10.8363L10.1762 11.111L10.4657 11.1132C10.5032 11.1135 10.5187 11.1613 10.4886 11.1836L10.2557 11.3556L10.3431 11.6317C10.3544 11.6674 10.3137 11.697 10.2832 11.6752L10.0476 11.5068L9.81206 11.6752C9.78154 11.697 9.7409 11.6674 9.75215 11.6317L9.83953 11.3556L9.60661 11.1836C9.57646 11.1613 9.59198 11.1135 9.62948 11.1132L9.91903 11.111L10.0106 10.8363C10.0224 10.8007 10.0727 10.8007 10.0846 10.8363Z" fill="#F4F4F0"/>
</g>
<defs>
<clipPath id="clip0_2379_4121">
<rect width="24" height="24" fill="white"/>
</clipPath>
</defs>
</svg>
